<svg width="101" height="44" viewBox="0 0 101 44" fill="none" xmlns="http://www.w3.org/2000/svg">
<g clip-path="url(#clip0_22721_7775)">
<path d="M27.1137 12.3054C26.9447 12.1374 26.7457 12.0529 26.5157 12.0529C26.4012 12.0529 26.1597 12.1469 25.7927 12.3324C25.4252 12.5184 25.0352 12.7254 24.6247 12.9564C24.2132 13.1859 23.7262 13.3939 23.1642 13.5799C22.6027 13.7654 22.0827 13.8594 21.6042 13.8594C21.1622 13.8594 20.7722 13.7754 20.4362 13.6069C19.3217 13.0849 18.3522 12.6954 17.5292 12.4384C16.7062 12.1819 15.8212 12.0529 14.8737 12.0529C13.2377 12.0529 11.3742 12.5849 9.28524 13.6469C8.85424 13.8619 8.54524 14.0284 8.34524 14.1504L8.14674 12.6949C8.59524 12.3054 8.88474 11.7379 8.88474 11.0974C8.88474 9.9239 7.93374 8.9729 6.76024 8.9729C5.58674 8.9729 4.63574 9.9239 4.63574 11.0974C4.63574 11.8629 5.04474 12.5284 5.65174 12.9024L8.52174 33.9474C8.60724 34.5739 9.14324 35.0284 9.75874 35.0284C9.81474 35.0284 9.87174 35.0249 9.92924 35.0174C10.6132 34.9234 11.0922 34.2939 10.9987 33.6099L9.84524 25.1514C11.9382 24.1129 13.7487 23.5894 15.2717 23.5894C15.9182 23.5894 16.5487 23.6859 17.1632 23.8809C17.7782 24.0764 18.2897 24.2884 18.6967 24.5179C19.1037 24.7479 19.5842 24.9609 20.1367 25.1549C20.6902 25.3499 21.2367 25.4474 21.7762 25.4474C23.1392 25.4474 24.7717 24.9339 26.6742 23.9074C26.9132 23.7834 27.0882 23.6614 27.1987 23.5419C27.3092 23.4224 27.3647 23.2524 27.3647 23.0314V12.9029C27.3647 12.6734 27.2812 12.4739 27.1137 12.3054Z" fill="#F0145A"/>
<path d="M51.5127 9.8V35H45.6807V14.48H40.6407V9.8H51.5127ZM66.6903 35.432C64.6023 35.432 62.7423 34.916 61.1103 33.884C59.4783 32.852 58.1943 31.364 57.2583 29.42C56.3463 27.452 55.8903 25.112 55.8903 22.4C55.8903 19.688 56.3463 17.36 57.2583 15.416C58.1943 13.448 59.4783 11.948 61.1103 10.916C62.7423 9.884 64.6023 9.368 66.6903 9.368C68.7783 9.368 70.6383 9.884 72.2703 10.916C73.9023 11.948 75.1743 13.448 76.0863 15.416C77.0223 17.36 77.4903 19.688 77.4903 22.4C77.4903 25.112 77.0223 27.452 76.0863 29.42C75.1743 31.364 73.9023 32.852 72.2703 33.884C70.6383 34.916 68.7783 35.432 66.6903 35.432ZM66.6903 30.5C68.2263 30.5 69.4263 29.84 70.2903 28.52C71.1783 27.2 71.6223 25.16 71.6223 22.4C71.6223 19.64 71.1783 17.6 70.2903 16.28C69.4263 14.96 68.2263 14.3 66.6903 14.3C65.1783 14.3 63.9783 14.96 63.0903 16.28C62.2263 17.6 61.7943 19.64 61.7943 22.4C61.7943 25.16 62.2263 27.2 63.0903 28.52C63.9783 29.84 65.1783 30.5 66.6903 30.5ZM98.4285 24.596H92.1645V30.716H87.5205V24.596H81.2925V20.204H87.5205V14.084H92.1645V20.204H98.4285V24.596Z" fill="url(#paint0_linear_22721_7775)"/>
</g>
<defs>
<linearGradient id="paint0_linear_22721_7775" x1="40.4766" y1="12.32" x2="101.072" y2="12.5097" gradientUnits="userSpaceOnUse">
<stop stop-color="#F0145A"/>
<stop offset="1" stop-color="#EF8080"/>
</linearGradient>
<clipPath id="clip0_22721_7775">
<rect width="101" height="44" fill="white"/>
</clipPath>
</defs>
</svg>
