<svg width="64" height="64" viewBox="0 0 64 64" fill="none" xmlns="http://www.w3.org/2000/svg">
<path d="M23.7339 28.125C24.8379 28.125 25.7339 27.229 25.7339 26.125V18.325C25.7339 14.838 28.5709 12 32.0579 12C35.5449 12 38.3829 14.838 38.3829 18.325V26.125C38.3829 27.229 39.2779 28.125 40.3829 28.125C41.4869 28.125 42.3829 27.229 42.3829 26.125V18.325C42.3839 12.632 37.7519 8 32.0579 8C26.3659 8 21.7339 12.632 21.7339 18.325V26.125C21.7339 27.229 22.6299 28.125 23.7339 28.125Z" fill="url(#paint0_linear_22728_12613)"/>
<path d="M55 23.6309H44.384V26.1249C44.384 28.3309 42.59 30.1249 40.384 30.1249C38.178 30.1249 36.384 28.3309 36.384 26.1249V23.6309H27.735V26.1249C27.735 28.3309 25.941 30.1249 23.735 30.1249C21.529 30.1249 19.735 28.3309 19.735 26.1249V23.6309H8.99997C8.44797 23.6309 8.10697 24.0659 8.23797 24.6019L15.236 53.0989C15.658 54.7009 17.344 55.9999 19 55.9999H45C46.658 55.9999 48.342 54.7009 48.766 53.0989L55.762 24.6019C55.893 24.0649 55.553 23.6309 55 23.6309Z" fill="url(#paint1_linear_22728_12613)"/>
<path d="M28.6001 34.4C28.6001 33.6265 29.2266 33 30.0001 33C30.7736 33 31.4001 33.6265 31.4001 34.4V41.35L31.4001 40C31.4001 39.2265 32.0266 38.6 32.8001 38.6C33.5736 38.6 34.2001 39.2265 34.2001 40V41.6764C34.2127 40.9141 34.8346 39.3 35.6 39.3C36.3731 39.3 36.9999 39.9268 37 40.7C37 40.7 37.0411 41.7411 37.1332 41.8033C37.3572 41.3285 37.8402 40 38.4 40C39.1732 40 39.8 40.6268 39.8 41.4V48.4C39.8 49.9463 38.5463 51.2 37 51.2H32.3198C30.8344 51.2 29.4099 50.6099 28.3599 49.5599L26.15 47.35L23 45.9402C23.0051 44.6033 24.0526 44.2 25.1 44.2C26.0023 44.2 26.8136 44.3407 28.6 45.25L28.6001 34.4Z" fill="white"/>
<path d="M38.7137 41.9761C38.4293 40.3006 37.2227 40.0724 36.7037 40.0536C36.5568 40.0474 36.4224 39.9723 36.3443 39.8473C35.9504 39.2284 35.419 39.0658 34.9657 39.0658C34.7594 39.0658 34.5687 39.1002 34.4187 39.1377C34.3749 39.1502 34.328 39.1565 34.2842 39.1565C34.1248 39.1565 33.9716 39.0846 33.8747 38.9501C33.4871 38.4156 32.9838 38.2687 32.5493 38.2687C32.4337 38.2687 32.3243 38.2812 32.2211 38.2968C32.1961 38.2999 32.168 38.3031 32.1429 38.3031C31.8647 38.3031 31.6303 38.078 31.6303 37.7904L31.6272 34.6926C31.6272 33.8923 31.027 33.4922 30.4268 33.4922C29.8235 33.4922 29.2233 33.8954 29.2233 34.6957C29.2264 36.0399 29.2295 40.0786 29.2327 41.2978C29.2327 41.5009 29.1076 41.6885 28.9201 41.7666C26.5349 42.7638 29.4796 47.234 30.0048 47.9998C30.0579 48.0717 30.0892 48.1593 30.0954 48.2499L30.2236 49.9973C30.2455 50.2662 30.4674 50.5069 30.7363 50.5069L36.4943 50.4662C36.7506 50.4662 36.9695 50.2568 37.0007 50.0036L37.2352 48.2093C37.2445 48.1311 37.2727 48.0561 37.3133 47.9905C38.8544 45.6116 38.9732 43.5266 38.7137 41.9761Z" fill="white"/>
<defs>
<linearGradient id="paint0_linear_22728_12613" x1="32.0584" y1="8" x2="32.0584" y2="28.125" gradientUnits="userSpaceOnUse">
<stop stop-color="#EF8080"/>
<stop offset="1" stop-color="#F0145A"/>
</linearGradient>
<linearGradient id="paint1_linear_22728_12613" x1="32" y1="23.6309" x2="32" y2="55.9999" gradientUnits="userSpaceOnUse">
<stop stop-color="#EF8080"/>
<stop offset="1" stop-color="#F0145A"/>
</linearGradient>
</defs>
</svg>
